<svg xmlns="http://www.w3.org/2000/svg" viewBox="0 0 512 512">
  <defs>
    <linearGradient id="table" x1="0" y1="0" x2="0" y2="1">
      <stop offset="0%" stop-color="#5a0f14" />
      <stop offset="100%" stop-color="#1b0405" />
    </linearGradient>
    <linearGradient id="card" x1="0" y1="0" x2="1" y2="1">
      <stop offset="0%" stop-color="#fff9f2" />
      <stop offset="100%" stop-color="#ead8c0" />
    </linearGradient>
    <linearGradient id="hand" x1="0" y1="0" x2="1" y2="1">
      <stop offset="0%" stop-color="#f9e5cf" />
      <stop offset="100%" stop-color="#d6b79a" />
    </linearGradient>
    <filter id="shadow" x="-20%" y="-20%" width="140%" height="140%">
      <feDropShadow dx="0" dy="12" stdDeviation="12" flood-color="#120506" flood-opacity="0.55" />
    </filter>
  </defs>

  <rect width="512" height="512" fill="url(#table)" rx="36" />
  <g opacity="0.12">
    <path d="M44 90c30 0 60 20 60 50s-30 50-60 50-60-20-60-50S14 90 44 90z" fill="#9b2d30" />
    <path d="M468 322c20 0 38 14 38 32s-18 32-38 32-38-14-38-32 18-32 38-32z" fill="#9b2d30" />
    <path d="M126 404c26 0 48 18 48 40s-22 40-48 40-48-18-48-40 22-40 48-40z" fill="#9b2d30" />
    <path d="M408 120c18 0 34 12 34 28s-16 28-34 28-34-12-34-28 16-28 34-28z" fill="#9b2d30" />
  </g>

  <g filter="url(#shadow)">
    <path d="M121 299c44 18 74 10 104-22l30-32c7-7 17-11 27-10l66 7c11 1 21 7 27 16l12 18c11 17 11 40-1 57-23 32-70 31-98 4l-5-5c-6-6-16-6-22 0-6 6-6 16 0 22 17 17 39 27 62 29 23 1 47-6 66-23 30-27 37-72 16-107l-12-20c-9-15-24-25-41-27l-73-8c-20-2-40 6-54 21l-30 32c-24 26-44 29-76 16-8-3-17 1-20 9-3 8 1 17 9 20z" fill="url(#hand)" />
    <path d="M368 214c-22-28-56-40-87-31l-36 11c-10 3-18 9-24 18l-20 31c-5 8-5 19 2 26 8 9 21 9 30 1l42-40c6-6 16-6 22 0s6 16 0 22l-20 20c-7 7-7 18 0 25 7 7 18 7 25 0l18-18c7-7 19-7 26 1 7 8 6 19-1 26l-22 22c-6 6-6 16 0 22 6 6 16 6 22 0l32-32c22-22 24-56 5-80z" fill="url(#hand)" />
  </g>

  <g transform="translate(230 135) rotate(-12)">
    <rect x="-70" y="-110" width="140" height="190" rx="14" fill="url(#card)" stroke="#c0a080" stroke-width="6" />
    <rect x="-120" y="-90" width="140" height="190" rx="14" fill="url(#card)" stroke="#c0a080" stroke-width="6" />
    <rect x="-20" y="-90" width="140" height="190" rx="14" fill="url(#card)" stroke="#c0a080" stroke-width="6" />
    <g transform="translate(-30,-70)">
      <text x="0" y="0" font-family="Cardo, serif" font-size="36" fill="#7c0f17" font-weight="700">A</text>
      <path d="M18 20c18-20 38-20 56 0 18 20 0 46-28 70-28-24-46-50-28-70z" fill="#c22034" />
      <text x="78" y="140" font-family="Cardo, serif" font-size="36" fill="#7c0f17" font-weight="700" transform="rotate(180 78 140)">A</text>
    </g>
    <g transform="translate(30,-50)">
      <text x="0" y="0" font-family="Cardo, serif" font-size="36" fill="#7c0f17" font-weight="700">A</text>
      <path d="M18 20c18-20 38-20 56 0 18 20 0 46-28 70-28-24-46-50-28-70z" fill="#c22034" />
      <text x="78" y="140" font-family="Cardo, serif" font-size="36" fill="#7c0f17" font-weight="700" transform="rotate(180 78 140)">A</text>
    </g>
  </g>

  <text x="256" y="452" text-anchor="middle" font-family="Cardo, serif" font-size="56" fill="#f6c177" letter-spacing="0.22em">POKER</text>
  <text x="256" y="492" text-anchor="middle" font-family="Play, sans-serif" font-size="30" fill="#f8efe3" letter-spacing="0.45em">ASSISTANT</text>
</svg>
